<?xml version="1.0" encoding="utf-8"?>
<!-- Generator: Adobe Illustrator 16.0.0, SVG Export Plug-In . SVG Version: 6.00 Build 0)  -->
<!DOCTYPE svg PUBLIC "-//W3C//DTD SVG 1.1//EN" "http://www.w3.org/Graphics/SVG/1.1/DTD/svg11.dtd">
<svg version="1.1" id="Layer_1" xmlns="http://www.w3.org/2000/svg" xmlns:xlink="http://www.w3.org/1999/xlink" x="0px" y="0px"
	 width="123px" height="31px" viewBox="0 0 123 35" enable-background="new 0 0 123 31" xml:space="preserve">
<g>
	<path fill="#fff" d="M116.39,27.719c0.528-0.955,0.792-2.183,0.792-3.666c0-0.999-0.117-1.777-0.348-2.315
		c-0.348-0.813-0.892-0.934-1.184-0.934c-1.125,0-2.146,1.712-2.146,3.591c0,1.354,0.533,2.593,1.51,3.524
		c-0.068,0.073-0.137,0.144-0.21,0.211c-1.052,0.96-2.391,0.832-2.4,0.831l-0.027-0.02h-0.022c-1.6,0-2.729-0.551-3.354-1.674
		c-0.403-0.718-0.478-1.447-0.488-1.684c0-0.008,0-0.01,0-0.016c0.051-0.434,0.681-3.936,1.055-9.559
		c0.227-3.433,0.312-6.276,0.258-8.452c-0.096-3.813-0.613-4.819-0.992-5.248c-0.293-0.325-0.611-0.312-0.828-0.312h-0.025h-0.01
		c-0.215,0-0.52,0-0.795,0.313c-0.379,0.429-0.896,1.437-0.992,5.251c-0.057,2.177,0.031,5.02,0.258,8.452
		c0.376,5.707,1.022,9.288,1.055,9.576c-0.068,0.871-0.388,1.551-0.984,2.09c-0.679,0.614-1.612,0.945-2.51,1.118
		c1.184-1.353,1.188-3.37,1.188-3.456c0-0.047-0.008-1.166-0.473-2.297c-0.282-0.691-0.678-1.246-1.174-1.651
		c-0.63-0.511-1.406-0.771-2.309-0.771c-0.934,0-1.723,0.277-2.354,0.814c0.166-1.469,0.344-3.295,0.486-5.428
		c0.229-3.433,0.312-6.277,0.257-8.453c-0.095-3.814-0.61-4.819-0.989-5.248c-0.291-0.328-0.611-0.312-0.828-0.312h-0.026h-0.007
		c-0.216,0-0.521,0-0.795,0.313c-0.383,0.429-0.9,1.436-0.996,5.25c-0.056,2.176,0.033,5.02,0.259,8.453
		c0.378,5.707,1.021,9.287,1.057,9.575h0.001l-0.004,0.013c-0.01,0.215-0.055,0.816-0.39,1.619
		c-0.482,1.164-1.333,1.756-2.526,1.756c-1.199,0-2.068-0.582-2.564-1.729c-0.316-0.737-0.422-1.495-0.422-1.775v-1.48h-0.951v0.005
		h-0.04v1.329c0,0-0.007,0.984-0.397,1.908c-0.486,1.144-1.333,1.733-2.522,1.733c-1.19,0-2.041-0.579-2.523-1.726
		c-0.332-0.791-0.388-1.609-0.394-1.842c0-0.037,0-0.074,0-0.074h-0.005c0.005-1.522,0.721-2.891,1.974-3.408
		c1.297-0.538,2.734-0.146,3.868,0.988l0.856-0.714c-1.428-1.426-3.435-1.896-5.113-1.2c-0.77,0.318-1.417,0.856-1.867,1.576
		c-0.484,0.772-0.73,1.807-0.73,2.758l0,0c0,0,0,0.037,0,0.074c-0.008,0.235-0.062,1.051-0.396,1.838
		c-0.482,1.15-1.326,1.736-2.512,1.736c-1.189,0-2.043-0.592-2.535-1.742c-0.403-0.931-0.422-1.906-0.422-1.906l0,0l-0.004-4.68
		l-1.012,0.002l0.002,4.695c0,0.02,0,1.866-1.042,2.919c-0.479,0.479-1.091,0.714-1.872,0.714c-1.196,0-2.027-0.585-2.526-1.736
		c-0.392-0.913-0.388-1.853-0.388-1.898v-0.001l-0.011-4.69h-0.968v0.001h-0.088v4.675c0,0-0.003,1.884-1.045,2.936
		c-0.471,0.473-1.074,0.709-1.844,0.709c-0.836,0-1.506-0.25-1.985-0.752c-1.004-1.041-0.944-2.838-0.944-2.855l0.003-0.021
		c0-2.409-1.063-3.59-1.955-4.144c-0.969-0.601-1.939-0.551-1.98-0.551h-0.003c-0.902,0-1.651,0.197-2.277,0.713
		c-0.231,0.191-0.413,0.428-0.603,0.684V20.65h-0.952v4.709c0,0.162-0.11,1.026-0.476,1.867c-0.494,1.146-1.364,1.727-2.536,1.727
		c-1.186,0-2.014-0.559-2.501-1.717c-0.391-0.924-0.408-1.884-0.408-1.884l-0.009-1.355l-0.029-0.005h-0.893v1.453
		c0,0.275-0.129,1.045-0.449,1.795c-0.488,1.148-1.364,1.729-2.553,1.729c-1.205,0-2.038-0.567-2.524-1.732
		c-0.323-0.778-0.386-1.576-0.397-1.824c0.002-0.023,0-0.037,0-0.042l-0.004-0.005c-0.001-0.022-0.002-0.039-0.002-0.039H43.4
		l-0.004-0.113c0.031-1.613,0.746-2.807,1.971-3.313c1.299-0.538,2.839-0.16,3.975,0.976l0.75-0.707
		c-1.426-1.424-3.434-1.896-5.112-1.201c-0.772,0.318-1.417,0.867-1.868,1.584c-0.482,0.775-0.729,1.704-0.729,2.768l-0.002,0.027
		l0.002,0.159c-0.032,0.314-0.146,1.019-0.51,1.728c-0.631,1.221-1.7,1.74-3.18,1.74c-1.473,0-2.559-0.514-3.227-1.721
		c-0.492-0.89-0.595-1.804-0.595-1.92v-5.048c0-0.058-0.001-1.036-0.313-2.329c-0.418-1.736-1.209-3.228-2.285-4.31
		c-1.486-1.495-3.441-2.323-5.945-2.323c-2.508,0-4.599,0.828-6.08,2.325c-0.939,0.951-1.66,2.219-2.098,3.692
		c-0.156-0.475-0.355-0.979-0.611-1.485c-0.656-1.292-1.544-2.324-2.642-3.068c-1.366-0.925-3.054-1.465-5.009-1.465
		c-1.956,0-3.646,0.54-5.019,1.465c-1.104,0.743-2,1.775-2.667,3.066c-1.117,2.169-1.197,4.311-1.2,4.401L1,20.26v9.719h0.952
		v-9.701c0-0.123,0.132-2.049,1.118-3.962c1.338-2.595,3.637-3.98,6.802-3.98c3.15,0,5.424,1.375,6.741,3.946
		c1.007,1.969,1.069,4.346,1.07,4.365h1.016c0-0.035-0.011-3.986,2.27-6.287c1.281-1.297,3.131-2.024,5.359-2.024
		c2.22,0,3.933,0.726,5.221,2.018c1.189,1.194,1.787,2.729,2.049,3.811c0.176,0.713,0.254,1.326,0.293,1.707
		c0,1.001,0,5.513,0,5.513c0.002,0.048,0.064,1.182,0.688,2.323c0.587,1.084,1.775,2.276,4.121,2.276
		c2.354,0,3.515-1.197,4.076-2.286c0.021-0.045,0.041-0.089,0.063-0.133c0.198,0.494,0.487,0.994,0.901,1.412
		c0.664,0.666,1.529,1.006,2.568,1.006c0.899,0,1.674-0.256,2.3-0.756c0.477-0.381,0.86-0.903,1.142-1.547
		c0.277,0.64,0.655,1.152,1.121,1.531c0.621,0.502,1.387,0.755,2.276,0.755c0.888,0,1.708-0.253,2.332-0.755
		c0.243-0.193,0.326-0.422,0.706-0.686v1.453l0.952,0.004v-4.602V25.37v-0.508c0.042-0.378,0.142-0.93,0.365-1.471
		c0.487-1.181,1.331-1.698,2.515-1.699c0.147,0.002,2.922,0.032,2.928,3.642c-0.008,0.199-0.047,2.264,1.218,3.584
		c0.679,0.711,1.595,1.07,2.72,1.07c1.037,0,1.899-0.338,2.561-1.004c0.381-0.383,0.654-0.836,0.851-1.291
		c0.283,0.642,0.669,1.159,1.147,1.539c0.631,0.502,1.408,0.756,2.311,0.756c1.05,0,1.922-0.34,2.588-1.012
		c0.382-0.383,0.654-0.836,0.85-1.291c0.284,0.645,0.671,1.164,1.146,1.547c0.628,0.501,1.402,0.756,2.301,0.756
		c0.895,0,1.669-0.256,2.291-0.76c0.473-0.376,0.85-0.889,1.125-1.524c0.277,0.636,0.656,1.149,1.127,1.528
		c0.625,0.501,1.4,0.756,2.3,0.756c0.897,0,1.669-0.254,2.294-0.756c0.479-0.379,0.861-0.898,1.141-1.543
		c0.287,0.646,0.674,1.164,1.154,1.545c0.627,0.501,1.404,0.754,2.309,0.754c0.9,0,1.672-0.255,2.295-0.76
		c0.469-0.375,0.846-0.885,1.123-1.517c0.191,0.44,0.462,0.882,0.834,1.257c0.672,0.676,1.547,1.018,2.605,1.018
		c0.055,0,0.101,0,0.151-0.003C101.54,29.992,101.75,30,101.992,30c1.312,0,3.692-0.212,5.196-1.567
		c0.313-0.282,0.569-0.601,0.773-0.952c0.191,0.41,0.458,0.832,0.839,1.213c0.85,0.855,2.037,1.29,3.527,1.295
		c0.248,0.018,1.834,0.086,3.146-1.1c0.119-0.107,0.233-0.221,0.337-0.34c1.467,0.963,3.566,1.451,6.218,1.451v-1.011
		C119.592,28.989,117.684,28.561,116.39,27.719z M97.199,15.133c-0.219-3.565-0.277-6.357-0.17-8.439c0,0,0.068-3.642,0.758-3.642
		s0.789,3.637,0.789,3.637c0.105,2.081,0.053,4.91-0.169,8.477c-0.163,2.678-0.396,3.727-0.604,5.895
		C97.597,18.895,97.363,17.811,97.199,15.133z M102.777,28.545c-0.287,0.195-0.617,0.321-0.99,0.383
		c-0.037,0.009-0.074,0.014-0.111,0.021c-0.006,0.001-0.008,0.001-0.01,0.001c-0.298,0.042-0.5,0.025-0.5,0.025
		s-0.322,0.018-0.75-0.102c-0.037-0.012-0.076-0.023-0.113-0.035c-0.02-0.008-0.039-0.014-0.061-0.02
		c-0.066-0.023-0.131-0.049-0.193-0.078c-0.021-0.01-0.045-0.02-0.068-0.029c-0.023-0.012-0.051-0.025-0.075-0.038
		c-0.725-0.374-1.508-1.208-1.583-3.06c-0.007-0.023-0.007-0.049-0.01-0.068c0.002-0.007,0.003-0.016,0.003-0.022
		c-0.001-0.068-0.003-0.137-0.003-0.208c0-2.297,1.027-3.163,1.844-3.49c0.031-0.008,0.059-0.02,0.088-0.027
		c0.055-0.022,0.111-0.041,0.162-0.055c0.018-0.006,0.031-0.01,0.051-0.014c0.406-0.111,0.709-0.098,0.709-0.098
		s2.883-0.276,2.994,3.443c0.013,0.166,0.014,0.268,0.014,0.27c0,0.006-0.001,0.149-0.023,0.377
		C104.055,27.309,103.432,28.126,102.777,28.545z M107.398,15.135c-0.22-3.566-0.275-6.357-0.17-8.439c0,0,0.068-3.642,0.756-3.642
		c0.689,0,0.791,3.636,0.791,3.636c0.105,2.081,0.051,4.909-0.17,8.477c-0.162,2.679-0.395,3.728-0.604,5.896
		C107.795,18.896,107.562,17.812,107.398,15.135z M115.588,27.066c-0.875-0.904-1.075-1.931-1.075-2.672
		c0-0.682,0.173-1.38,0.474-1.918c0.269-0.482,0.552-0.662,0.664-0.662c0.057,0,0.155,0.102,0.252,0.321
		c0.122,0.283,0.268,0.846,0.268,1.917C116.17,25.275,115.975,26.283,115.588,27.066z"/>
</g>
</svg>
